<svg width="15" height="19" viewBox="0 0 15 19" fill="none" xmlns="http://www.w3.org/2000/svg">
<path id="lock" d="M2.66659 18.0417C2.19679 18.0417 1.79462 17.8744 1.46007 17.5399C1.12553 17.2053 0.958252 16.8031 0.958252 16.3334V7.79169C0.958252 7.3219 1.12553 6.91973 1.46007 6.58518C1.79462 6.25063 2.19679 6.08335 2.66659 6.08335H3.52075V4.37502C3.52075 3.19342 3.93716 2.18622 4.76997 1.35341C5.60278 0.520593 6.60999 0.104187 7.79159 0.104187C8.97318 0.104187 9.98039 0.520593 10.8132 1.35341C11.646 2.18622 12.0624 3.19342 12.0624 4.37502V6.08335H12.9166C13.3864 6.08335 13.7885 6.25063 14.1231 6.58518C14.4576 6.91973 14.6249 7.3219 14.6249 7.79169V16.3334C14.6249 16.8031 14.4576 17.2053 14.1231 17.5399C13.7885 17.8744 13.3864 18.0417 12.9166 18.0417H2.66659ZM2.66659 15.3334C2.66659 15.8856 3.1143 16.3334 3.66659 16.3334H11.9166C12.4689 16.3334 12.9166 15.8856 12.9166 15.3334V8.79169C12.9166 8.2394 12.4689 7.79169 11.9166 7.79169H3.66659C3.1143 7.79169 2.66659 8.2394 2.66659 8.79169V15.3334ZM7.79159 13.7709C8.26138 13.7709 8.66355 13.6036 8.9981 13.269C9.33264 12.9345 9.49992 12.5323 9.49992 12.0625C9.49992 11.5927 9.33264 11.1906 8.9981 10.856C8.66355 10.5215 8.26138 10.3542 7.79159 10.3542C7.32179 10.3542 6.91962 10.5215 6.58508 10.856C6.25053 11.1906 6.08325 11.5927 6.08325 12.0625C6.08325 12.5323 6.25053 12.9345 6.58508 13.269C6.91962 13.6036 7.32179 13.7709 7.79159 13.7709ZM5.22909 6.08335H10.3541V4.37502C10.3541 3.66321 10.105 3.05818 9.60669 2.55992C9.10843 2.06165 8.50339 1.81252 7.79159 1.81252C7.07978 1.81252 6.47475 2.06165 5.97648 2.55992C5.47822 3.05818 5.22909 3.66321 5.22909 4.37502V6.08335Z" fill="#E2E2E2"/>
</svg>
