<svg width="15" height="19" viewBox="0 0 15 19" fill="none" xmlns="http://www.w3.org/2000/svg">
<path id="lock_open" d="M12.9167 6.08335H5.22917V4.37502C5.22917 3.66321 5.4783 3.05818 5.97656 2.55992C6.47483 2.06165 7.07986 1.81252 7.79167 1.81252C8.50347 1.81252 9.10851 2.06165 9.60677 2.55992C9.89582 2.84897 10.101 3.17395 10.2224 3.53486C10.3728 3.982 10.7366 4.37502 11.2083 4.37502V4.37502C11.6801 4.37502 12.0729 3.9891 11.9852 3.52558C11.8296 2.7031 11.4389 1.97904 10.8133 1.35341C9.98047 0.520593 8.97326 0.104187 7.79167 0.104187C6.61007 0.104187 5.60286 0.520593 4.77005 1.35341C3.93724 2.18622 3.52083 3.19342 3.52083 4.37502V6.08335H2.66667C2.19687 6.08335 1.7947 6.25063 1.46016 6.58518C1.12561 6.91973 0.958333 7.3219 0.958333 7.79169V16.3334C0.958333 16.8031 1.12561 17.2053 1.46016 17.5399C1.7947 17.8744 2.19687 18.0417 2.66667 18.0417H12.9167C13.3865 18.0417 13.7886 17.8744 14.1232 17.5399C14.4577 17.2053 14.625 16.8031 14.625 16.3334V7.79169C14.625 7.3219 14.4577 6.91973 14.1232 6.58518C13.7886 6.25063 13.3865 6.08335 12.9167 6.08335ZM12.9167 15.3334C12.9167 15.8856 12.469 16.3334 11.9167 16.3334H3.66667C3.11438 16.3334 2.66667 15.8856 2.66667 15.3334V8.79169C2.66667 8.2394 3.11438 7.79169 3.66667 7.79169H11.9167C12.469 7.79169 12.9167 8.2394 12.9167 8.79169V15.3334ZM7.79167 13.7709C7.32187 13.7709 6.9197 13.6036 6.58516 13.269C6.25061 12.9345 6.08333 12.5323 6.08333 12.0625C6.08333 11.5927 6.25061 11.1906 6.58516 10.856C6.9197 10.5215 7.32187 10.3542 7.79167 10.3542C8.26146 10.3542 8.66363 10.5215 8.99818 10.856C9.33273 11.1906 9.5 11.5927 9.5 12.0625C9.5 12.5323 9.33273 12.9345 8.99818 13.269C8.66363 13.6036 8.26146 13.7709 7.79167 13.7709Z" fill="#E2E2E2"/>
</svg>
