<svg width="18" height="18" viewBox="0 0 18 18" fill="none" xmlns="http://www.w3.org/2000/svg">
<g id="plus-circle">
<path id="Vector" d="M9 17C13.4183 17 17 13.4183 17 9C17 4.58172 13.4183 1 9 1C4.58172 1 1 4.58172 1 9C1 13.4183 4.58172 17 9 17Z" stroke="white" stroke-width="2" stroke-linecap="round" stroke-linejoin="round"/>
<path id="Union" fill-rule="evenodd" clip-rule="evenodd" d="M10 5.79999C10 5.2477 9.55228 4.79999 9 4.79999C8.44772 4.79999 8 5.2477 8 5.79999V7C8 7.55228 7.55228 8 7 8H5.7998C5.24752 8 4.7998 8.44772 4.7998 9C4.7998 9.55228 5.24752 10 5.7998 10H7C7.55228 10 8 10.4477 8 11V12.2C8 12.7523 8.44772 13.2 9 13.2C9.55228 13.2 10 12.7523 10 12.2V11C10 10.4477 10.4477 10 11 10H12.1998C12.7521 10 13.1998 9.55228 13.1998 9C13.1998 8.44772 12.7521 8 12.1998 8H11C10.4477 8 10 7.55228 10 7V5.79999Z" fill="white"/>
</g>
</svg>
